<svg width="78" height="78" viewBox="0 0 78 78" fill="none" xmlns="http://www.w3.org/2000/svg">
<g filter="url(#filter0_di_69_31)">
<path d="M4 12C4 6.47715 8.47715 2 14 2H64C69.5229 2 74 6.47715 74 12V62C74 67.5229 69.5229 72 64 72H14C8.47715 72 4 67.5229 4 62V12Z" fill="url(#paint0_linear_69_31)"/>
<path d="M40.585 61C27.5799 61 17 50.2321 17 37C17 23.7679 27.5832 13 40.5883 13C44.7259 13.008 48.7891 14.1196 52.3727 16.224C55.9562 18.3284 58.9349 21.352 61.0115 24.9932L50.8065 31.0017C49.769 29.178 48.2792 27.6633 46.4861 26.6089C44.693 25.5546 42.6593 24.9974 40.5883 24.9932C37.4593 24.9959 34.4593 26.2618 32.2468 28.5129C30.0343 30.764 28.7901 33.8164 28.7875 37C28.7919 40.1818 30.0363 43.232 32.2479 45.4815C34.4595 47.7311 37.4577 48.9964 40.585 49C42.6551 48.9955 44.688 48.439 46.4809 47.3859C48.2738 46.3328 49.7641 44.82 50.8032 42.9983L61.0148 49.0067C58.9371 52.6485 55.9573 55.6724 52.3726 57.7767C48.7879 59.8811 44.7235 60.9925 40.585 61Z" fill="white"/>
</g>
<defs>
<filter id="filter0_di_69_31" x="0" y="0" width="78" height="78" filterUnits="userSpaceOnUse" color-interpolation-filters="sRGB">
<feFlood flood-opacity="0" result="BackgroundImageFix"/>
<feColorMatrix in="SourceAlpha" type="matrix" values="0 0 0 0 0 0 0 0 0 0 0 0 0 0 0 0 0 0 127 0" result="hardAlpha"/>
<feOffset dy="2"/>
<feGaussianBlur stdDeviation="2"/>
<feColorMatrix type="matrix" values="0 0 0 0 0 0 0 0 0 0 0 0 0 0 0 0 0 0 0.1 0"/>
<feBlend mode="normal" in2="BackgroundImageFix" result="effect1_dropShadow_69_31"/>
<feBlend mode="normal" in="SourceGraphic" in2="effect1_dropShadow_69_31" result="shape"/>
<feColorMatrix in="SourceAlpha" type="matrix" values="0 0 0 0 0 0 0 0 0 0 0 0 0 0 0 0 0 0 127 0" result="hardAlpha"/>
<feOffset/>
<feGaussianBlur stdDeviation="2.5"/>
<feComposite in2="hardAlpha" operator="arithmetic" k2="-1" k3="1"/>
<feColorMatrix type="matrix" values="0 0 0 0 0.908333 0 0 0 0 0.908333 0 0 0 0 0.908333 0 0 0 0.13 0"/>
<feBlend mode="normal" in2="shape" result="effect2_innerShadow_69_31"/>
</filter>
<linearGradient id="paint0_linear_69_31" x1="23" y1="14.5" x2="63" y2="60" gradientUnits="userSpaceOnUse">
<stop stop-color="#00589C"/>
<stop offset="1" stop-color="#004482"/>
</linearGradient>
</defs>
</svg>
