<svg width="78" height="78" viewBox="0 0 78 78" fill="none" xmlns="http://www.w3.org/2000/svg">
<g filter="url(#filter0_di_302_86)">
<path d="M4 12C4 6.47715 8.47715 2 14 2H64C69.5228 2 74 6.47715 74 12V62C74 67.5228 69.5228 72 64 72H14C8.47715 72 4 67.5228 4 62V12Z" fill="white"/>
<path d="M28.1865 26.068L25.083 22.963L25.095 45.3903L25.1325 46.4373C25.1475 46.9323 25.2413 47.4873 25.3913 48.0648L49.9725 56.7348L56.1225 54.0123L56.1278 54.0033L28.185 26.068H28.1865Z" fill="#00C4B3"/>
<path d="M25.392 48.0648H25.3942C25.392 48.0558 25.3882 48.0453 25.3837 48.0348C25.389 48.046 25.389 48.0573 25.3912 48.0648H25.392ZM56.1165 54.0123L49.9665 56.7348L25.389 48.0648C25.8577 49.8678 26.898 51.8943 28.0155 52.9998L36.033 60.9775L53.874 61L56.109 54.0123H56.1165Z" fill="#22D3C5"/>
<path d="M25.167 22.9637L15.6098 37.3975C14.8163 38.245 15.2123 39.994 16.4895 41.2825L22.0065 46.8445L25.4745 48.067C25.3245 47.491 25.23 46.942 25.2158 46.4395L25.1783 45.3925L25.167 22.9652V22.9637Z" fill="#0075C9"/>
<path d="M50.175 23.2525C49.5975 23.1063 49.044 23.014 48.5453 22.9998L47.4368 22.9593L25.083 22.9645L56.127 54.004L58.854 47.854L50.1765 23.254L50.175 23.2525Z" fill="#0075C9"/>
<path d="M50.1465 23.2473C50.1562 23.251 50.1667 23.2533 50.175 23.2548V23.2518C50.1652 23.2495 50.1562 23.2495 50.1465 23.2458V23.2473ZM55.1077 25.8858C53.979 24.7495 51.9802 23.7108 50.175 23.2548L58.8525 47.8525L56.1225 54.0025L62.784 51.874L62.799 33.61L55.107 25.885L55.1077 25.8858Z" fill="#00A8E1"/>
<path d="M48.9585 19.8062L43.4085 14.2862C42.114 13.0135 40.365 12.616 39.525 13.408L25.092 22.963L47.4457 22.9577L48.5542 22.9982C49.053 23.0132 49.6072 23.1047 50.184 23.251L48.96 19.8047L48.9585 19.8062Z" fill="#00C4B3"/>
</g>
<defs>
<filter id="filter0_di_302_86" x="0" y="0" width="78" height="78" filterUnits="userSpaceOnUse" color-interpolation-filters="sRGB">
<feFlood flood-opacity="0" result="BackgroundImageFix"/>
<feColorMatrix in="SourceAlpha" type="matrix" values="0 0 0 0 0 0 0 0 0 0 0 0 0 0 0 0 0 0 127 0" result="hardAlpha"/>
<feOffset dy="2"/>
<feGaussianBlur stdDeviation="2"/>
<feColorMatrix type="matrix" values="0 0 0 0 0 0 0 0 0 0 0 0 0 0 0 0 0 0 0.1 0"/>
<feBlend mode="normal" in2="BackgroundImageFix" result="effect1_dropShadow_302_86"/>
<feBlend mode="normal" in="SourceGraphic" in2="effect1_dropShadow_302_86" result="shape"/>
<feColorMatrix in="SourceAlpha" type="matrix" values="0 0 0 0 0 0 0 0 0 0 0 0 0 0 0 0 0 0 127 0" result="hardAlpha"/>
<feOffset/>
<feGaussianBlur stdDeviation="2.5"/>
<feComposite in2="hardAlpha" operator="arithmetic" k2="-1" k3="1"/>
<feColorMatrix type="matrix" values="0 0 0 0 0 0 0 0 0 0 0 0 0 0 0 0 0 0 0.25 0"/>
<feBlend mode="normal" in2="shape" result="effect2_innerShadow_302_86"/>
</filter>
</defs>
</svg>
