<svg width="78" height="78" viewBox="0 0 78 78" fill="none" xmlns="http://www.w3.org/2000/svg">
<g filter="url(#filter0_di_69_28)">
<path d="M4 12C4 6.47715 8.47715 2 14 2H64C69.5229 2 74 6.47715 74 12V62C74 67.5229 69.5229 72 64 72H14C8.47715 72 4 67.5229 4 62V12Z" fill="white"/>
<path d="M27.3752 44.6246L19.9063 37.3377L44.1578 13.6793H59.0937L27.3752 44.6246ZM59.0937 35.5112H44.1578L38.5629 40.9697L46.0319 48.2565" fill="#42A5F5" fill-opacity="0.8"/>
<path d="M38.5629 55.5416L44.1578 61H59.0937L46.0319 48.2567" fill="#0D47A1"/>
<path d="M31.1116 48.2602L38.5688 40.9829L46.026 48.2583L38.5688 55.5356L31.1116 48.2602Z" fill="#42A5F5"/>
<path d="M38.5688 55.5359L46.026 48.2605L47.0669 49.2761L39.6098 56.5515L38.5688 55.5359Z" fill="url(#paint0_linear_69_28)"/>
<path d="M38.5629 55.5414L49.6448 51.8061L46.0319 48.2545" fill="url(#paint1_linear_69_28)"/>
</g>
<defs>
<filter id="filter0_di_69_28" x="0" y="0" width="78" height="78" filterUnits="userSpaceOnUse" color-interpolation-filters="sRGB">
<feFlood flood-opacity="0" result="BackgroundImageFix"/>
<feColorMatrix in="SourceAlpha" type="matrix" values="0 0 0 0 0 0 0 0 0 0 0 0 0 0 0 0 0 0 127 0" result="hardAlpha"/>
<feOffset dy="2"/>
<feGaussianBlur stdDeviation="2"/>
<feColorMatrix type="matrix" values="0 0 0 0 0 0 0 0 0 0 0 0 0 0 0 0 0 0 0.1 0"/>
<feBlend mode="normal" in2="BackgroundImageFix" result="effect1_dropShadow_69_28"/>
<feBlend mode="normal" in="SourceGraphic" in2="effect1_dropShadow_69_28" result="shape"/>
<feColorMatrix in="SourceAlpha" type="matrix" values="0 0 0 0 0 0 0 0 0 0 0 0 0 0 0 0 0 0 127 0" result="hardAlpha"/>
<feOffset/>
<feGaussianBlur stdDeviation="2.5"/>
<feComposite in2="hardAlpha" operator="arithmetic" k2="-1" k3="1"/>
<feColorMatrix type="matrix" values="0 0 0 0 0 0 0 0 0 0 0 0 0 0 0 0 0 0 0.25 0"/>
<feBlend mode="normal" in2="shape" result="effect2_innerShadow_69_28"/>
</filter>
<linearGradient id="paint0_linear_69_28" x1="42.2988" y1="51.8969" x2="43.3142" y2="52.9375" gradientUnits="userSpaceOnUse">
<stop offset="0.2" stop-opacity="0.15"/>
<stop offset="0.85" stop-color="#616161" stop-opacity="0.01"/>
</linearGradient>
<linearGradient id="paint1_linear_69_28" x1="38.5656" y1="51.8982" x2="49.6472" y2="51.8982" gradientUnits="userSpaceOnUse">
<stop offset="0.2" stop-opacity="0.55"/>
<stop offset="0.85" stop-color="#616161" stop-opacity="0.01"/>
</linearGradient>
</defs>
</svg>
