<svg width="78" height="78" viewBox="0 0 78 78" fill="none" xmlns="http://www.w3.org/2000/svg">
<g filter="url(#filter0_di_69_25)">
<path d="M4 12C4 6.47715 8.47715 2 14 2H64C69.5229 2 74 6.47715 74 12V62C74 67.5229 69.5229 72 64 72H14C8.47715 72 4 67.5229 4 62V12Z" fill="white"/>
<path d="M4 2H74V72H4V2ZM68.2658 55.305C67.7554 52.1112 65.6758 49.4279 59.5071 46.9254C57.3604 45.9192 54.9746 45.2192 54.2658 43.6004C54.0004 42.6379 53.9596 42.1129 54.1317 41.5442C54.5692 39.66 56.8004 39.0942 58.5504 39.6192C59.6879 39.9692 60.7379 40.8442 61.3971 42.2442C64.4129 40.2725 64.4129 40.2725 66.5158 38.9629C65.7283 37.7379 65.3375 37.21 64.8067 36.6879C62.9692 34.6317 60.5221 33.5817 56.5408 33.6721L54.4846 33.9317C52.5129 34.4129 50.6346 35.4629 49.4971 36.8629C46.1721 40.6283 47.1317 47.1908 51.1567 49.9033C55.1379 52.8783 60.9596 53.5317 61.7033 56.3346C62.4033 59.7471 59.1658 60.8408 55.9692 60.4471C53.6038 59.9221 52.2942 58.7379 50.8504 56.5504L45.5129 59.6158C46.1254 61.0158 46.8254 61.6254 47.8754 62.8504C52.9504 67.9721 65.6379 67.7096 67.9158 59.9221C68.0004 59.6596 68.6158 57.8658 68.1317 55.1096L68.2658 55.305ZM42.0654 34.1738H35.5088C35.5088 39.8263 35.4825 45.4438 35.4825 51.105C35.4825 54.6983 35.6663 57.9971 35.08 59.0121C34.1175 61.0217 31.6383 60.765 30.5125 60.4121C29.3575 59.8404 28.7713 59.0529 28.0917 57.9183C27.9079 57.6121 27.7708 57.3467 27.7213 57.3467L22.3983 60.6279C23.2879 62.4654 24.5858 64.0463 26.26 65.0525C28.7537 66.54 32.105 67.0213 35.6138 66.2338C37.8975 65.5746 39.8662 64.2183 40.8958 62.1183C42.3833 59.4058 42.0683 56.0808 42.0537 52.3592C42.0887 46.3683 42.0537 40.3746 42.0537 34.3371L42.0654 34.1738Z" fill="#F7DF1E"/>
</g>
<defs>
<filter id="filter0_di_69_25" x="0" y="0" width="78" height="78" filterUnits="userSpaceOnUse" color-interpolation-filters="sRGB">
<feFlood flood-opacity="0" result="BackgroundImageFix"/>
<feColorMatrix in="SourceAlpha" type="matrix" values="0 0 0 0 0 0 0 0 0 0 0 0 0 0 0 0 0 0 127 0" result="hardAlpha"/>
<feOffset dy="2"/>
<feGaussianBlur stdDeviation="2"/>
<feColorMatrix type="matrix" values="0 0 0 0 0 0 0 0 0 0 0 0 0 0 0 0 0 0 0.1 0"/>
<feBlend mode="normal" in2="BackgroundImageFix" result="effect1_dropShadow_69_25"/>
<feBlend mode="normal" in="SourceGraphic" in2="effect1_dropShadow_69_25" result="shape"/>
<feColorMatrix in="SourceAlpha" type="matrix" values="0 0 0 0 0 0 0 0 0 0 0 0 0 0 0 0 0 0 127 0" result="hardAlpha"/>
<feOffset/>
<feGaussianBlur stdDeviation="2.5"/>
<feComposite in2="hardAlpha" operator="arithmetic" k2="-1" k3="1"/>
<feColorMatrix type="matrix" values="0 0 0 0 0.908333 0 0 0 0 0.908333 0 0 0 0 0.908333 0 0 0 0.13 0"/>
<feBlend mode="normal" in2="shape" result="effect2_innerShadow_69_25"/>
</filter>
</defs>
</svg>
