<svg width="78" height="78" viewBox="0 0 78 78" fill="none" xmlns="http://www.w3.org/2000/svg">
<g filter="url(#filter0_di_69_24)">
<path d="M4 12C4 6.47715 8.47715 2 14 2H64C69.5229 2 74 6.47715 74 12V62C74 67.5229 69.5229 72 64 72H14C8.47715 72 4 67.5229 4 62V12Z" fill="#339933"/>
<path d="M38.997 61C38.3636 61 37.7321 60.832 37.1776 60.506L31.3836 57.032C30.5193 56.542 30.9416 56.368 31.2258 56.266C32.3802 55.8601 32.6131 55.7661 33.8464 55.0581C33.9747 54.9841 34.1444 55.0121 34.2767 55.0921L38.7287 57.77C38.8905 57.86 39.1174 57.86 39.2654 57.77L56.6215 47.6181C56.7833 47.5241 56.886 47.3361 56.886 47.1421V26.8424C56.886 26.6444 56.7814 26.4584 56.6156 26.3584L39.2674 16.2145C39.1075 16.1205 38.8944 16.1205 38.7326 16.2145L21.3883 26.3604C21.2206 26.4584 21.114 26.6504 21.114 26.8424V47.1421C21.114 47.3361 21.2206 47.5201 21.3883 47.6121L26.1423 50.3961C28.7215 51.7041 30.3022 50.1641 30.3022 48.6161V28.5743C30.3022 28.2903 30.5272 28.0683 30.8074 28.0683H33.0078C33.2821 28.0683 33.511 28.2923 33.511 28.5743V48.6161C33.511 52.1061 31.6362 54.1061 28.3722 54.1061C27.3697 54.1061 26.5784 54.1061 24.3741 53.0041L19.8195 50.3501C18.6946 49.6921 18 48.4601 18 47.1421V26.8424C18 25.5244 18.6966 24.2924 19.8195 23.6364L37.1756 13.4725C38.2748 12.8425 39.7331 12.8425 40.8224 13.4725L58.1766 23.6364C59.3014 24.2944 60 25.5244 60 26.8424V47.1421C60 48.4601 59.3014 49.6881 58.1766 50.3501L40.8224 60.506C40.2699 60.832 39.6404 61 38.997 61ZM53.0102 40.9862C53.0102 37.1862 50.4763 36.1743 45.1422 35.4603C39.7529 34.7383 39.2042 34.3643 39.2042 33.0863C39.2042 32.0303 39.668 30.6203 43.6602 30.6203C47.2261 30.6203 48.5404 31.3983 49.0811 33.8343C49.1285 34.0643 49.3357 34.2323 49.5686 34.2323H51.8202C51.9603 34.2323 52.0926 34.1703 52.1873 34.0703C52.282 33.9623 52.3333 33.8243 52.3195 33.6783C51.9702 29.4823 49.2193 27.5263 43.6602 27.5263C38.7109 27.5263 35.7587 29.6423 35.7587 33.1923C35.7587 37.0422 38.6951 38.1062 43.4451 38.5822C49.1285 39.1462 49.5686 39.9882 49.5686 41.1202C49.5686 43.0862 48.0116 43.9242 44.3548 43.9242C39.7627 43.9242 38.7523 42.7562 38.4129 40.4402C38.3734 40.1922 38.1643 40.0102 37.9136 40.0102H35.6699C35.3916 40.0102 35.1686 40.2342 35.1686 40.5162C35.1686 43.4802 36.7592 47.0121 44.3548 47.0121C49.8567 47.0141 53.0102 44.8202 53.0102 40.9862Z" fill="white"/>
</g>
<defs>
<filter id="filter0_di_69_24" x="0" y="0" width="78" height="78" filterUnits="userSpaceOnUse" color-interpolation-filters="sRGB">
<feFlood flood-opacity="0" result="BackgroundImageFix"/>
<feColorMatrix in="SourceAlpha" type="matrix" values="0 0 0 0 0 0 0 0 0 0 0 0 0 0 0 0 0 0 127 0" result="hardAlpha"/>
<feOffset dy="2"/>
<feGaussianBlur stdDeviation="2"/>
<feColorMatrix type="matrix" values="0 0 0 0 0 0 0 0 0 0 0 0 0 0 0 0 0 0 0.1 0"/>
<feBlend mode="normal" in2="BackgroundImageFix" result="effect1_dropShadow_69_24"/>
<feBlend mode="normal" in="SourceGraphic" in2="effect1_dropShadow_69_24" result="shape"/>
<feColorMatrix in="SourceAlpha" type="matrix" values="0 0 0 0 0 0 0 0 0 0 0 0 0 0 0 0 0 0 127 0" result="hardAlpha"/>
<feOffset/>
<feGaussianBlur stdDeviation="2.5"/>
<feComposite in2="hardAlpha" operator="arithmetic" k2="-1" k3="1"/>
<feColorMatrix type="matrix" values="0 0 0 0 0.908333 0 0 0 0 0.908333 0 0 0 0 0.908333 0 0 0 0.13 0"/>
<feBlend mode="normal" in2="shape" result="effect2_innerShadow_69_24"/>
</filter>
</defs>
</svg>
