<svg width="78" height="78" viewBox="0 0 78 78" fill="none" xmlns="http://www.w3.org/2000/svg">
<g filter="url(#filter0_di_69_32)">
<path d="M4 12C4 6.47715 8.47715 2 14 2H64C69.5229 2 74 6.47715 74 12V62C74 67.5229 69.5229 72 64 72H14C8.47715 72 4 67.5229 4 62V12Z" fill="white"/>
<path d="M61.5526 22.1003L62.243 22.2509L63.0322 22.5521L63.8953 23.0038L64.7831 23.6815L65.6708 24.56L66.5339 25.7395L67.3231 27.2202L68.0135 29.0524L68.5314 31.261L68.8767 33.8711L69 36.9582L68.852 40.0452L68.4574 42.6553L67.8656 44.8137L67.0765 46.5956L66.1887 48.0262L65.2023 49.1556L64.1665 49.9838L63.1308 50.5862L62.1444 50.9878L61.2566 51.2136L60.4674 51.3391L59.8756 51.3893L59.4811 51.3642H39.2102V53.4222H53.6119L53.6365 60.3491L53.6858 61.2526L53.5626 62.106L53.2912 62.884L52.872 63.6118L52.2555 64.2393L51.4911 64.8416L50.5539 65.3436L49.4689 65.7702L48.2112 66.1467L46.7809 66.4729L45.2027 66.6988L43.4517 66.8745L41.5529 66.9749L39.4814 67L36.3495 66.8996L33.7108 66.5482L31.4914 66.0463L29.6912 65.4188L28.2362 64.6659L27.1265 63.8377L26.288 62.9844L25.6715 62.1311L25.277 61.3029L25.0303 60.5499L24.9317 59.9225L24.8824 59.4205L24.907 59.0942V45.6921L25.0303 44.0858L25.3509 42.7306L25.8688 41.5761L26.5099 40.6224L27.2498 39.8193L28.0636 39.2169L28.9267 38.715L29.7898 38.3636L30.6036 38.1127L31.3434 37.9621L31.9846 37.8617L32.5024 37.8115L32.8231 37.7864H47.2248L48.9263 37.6609L50.3814 37.3095L51.6144 36.7824L52.6254 36.0798L53.4392 35.2766L54.105 34.3982L54.5983 33.4947L54.9682 32.5912L55.2148 31.7128L55.3874 30.9096L55.4861 30.2069L55.5354 29.6799V22H60.6894L61.0347 22.025L61.5526 22.1003ZM45.5972 57.8644L45.03 58.6927L44.8327 59.7217L45.03 60.7507L45.5972 61.5789L46.411 62.1561L47.4221 62.357L48.4331 62.1561L49.2469 61.5789L49.8141 60.7507L50.0115 59.7217L49.8141 58.6927L49.2469 57.8644L48.4331 57.2872L47.4221 57.0865L46.411 57.2872L45.5972 57.8644Z" fill="#FFDD55"/>
<path d="M44.2892 7.45176L46.5086 7.95371L48.3088 8.60625L49.7638 9.35917L50.8735 10.1623L51.712 11.0156L52.3285 11.8689L52.7231 12.6972L52.9697 13.4501L53.0683 14.1026L53.1176 14.6046L53.093 14.9308V28.333L52.9697 29.9141L52.6491 31.2945L52.1312 32.449L51.4901 33.4027L50.7502 34.1807L49.9364 34.8081L49.0733 35.285L48.2102 35.6364L47.3964 35.8873L46.6566 36.063L46.0154 36.1634L45.4976 36.2136H30.7752L29.0737 36.3391L27.6187 36.6905L26.3857 37.2426L25.3746 37.9202L24.5608 38.7234L23.8949 39.6018L23.4017 40.5053L23.0318 41.4339L22.7852 42.3123L22.6126 43.1154L22.514 43.7931L22.4646 44.3201V52H16.9653L16.4475 51.9247L15.757 51.749L14.9678 51.4478L14.1047 50.9961L13.2169 50.3436L12.3292 49.44L11.4661 48.2856L10.6769 46.8048L9.98642 44.9727L9.46855 42.7641L9.1233 40.1288L9 37.0418L9.14796 33.9799L9.54253 31.3698L10.1344 29.1863L10.9235 27.4044L11.8113 25.9738L12.7977 24.8695L13.8335 24.0413L14.8692 23.4389L15.8556 23.0374L16.7434 22.7864L17.5325 22.6609L18.1244 22.6358H18.519L18.6669 22.6609H38.7899V20.5778H24.3882L24.3635 13.676L24.3142 12.7474L24.4375 11.894L24.7087 11.116L25.128 10.4133L25.7445 9.76074L26.509 9.18349L27.4461 8.68154L28.5311 8.22978L29.7888 7.85332L31.2191 7.55215L32.7974 7.30117L34.5483 7.15059L36.4471 7.0502L38.5186 7L41.6505 7.12549L44.2892 7.45176ZM28.7531 12.4211L28.1859 13.2493L27.9886 14.2783L28.1859 15.3073L28.7531 16.1606L29.5669 16.7128L30.5779 16.9386L31.589 16.7128L32.4028 16.1606L32.97 15.3073L33.1673 14.2783L32.97 13.2493L32.4028 12.4211L31.589 11.8689L30.5779 11.6431L29.5669 11.8689L28.7531 12.4211Z" fill="#3772A2"/>
</g>
<defs>
<filter id="filter0_di_69_32" x="0" y="0" width="78" height="78" filterUnits="userSpaceOnUse" color-interpolation-filters="sRGB">
<feFlood flood-opacity="0" result="BackgroundImageFix"/>
<feColorMatrix in="SourceAlpha" type="matrix" values="0 0 0 0 0 0 0 0 0 0 0 0 0 0 0 0 0 0 127 0" result="hardAlpha"/>
<feOffset dy="2"/>
<feGaussianBlur stdDeviation="2"/>
<feColorMatrix type="matrix" values="0 0 0 0 0 0 0 0 0 0 0 0 0 0 0 0 0 0 0.1 0"/>
<feBlend mode="normal" in2="BackgroundImageFix" result="effect1_dropShadow_69_32"/>
<feBlend mode="normal" in="SourceGraphic" in2="effect1_dropShadow_69_32" result="shape"/>
<feColorMatrix in="SourceAlpha" type="matrix" values="0 0 0 0 0 0 0 0 0 0 0 0 0 0 0 0 0 0 127 0" result="hardAlpha"/>
<feOffset/>
<feGaussianBlur stdDeviation="2.5"/>
<feComposite in2="hardAlpha" operator="arithmetic" k2="-1" k3="1"/>
<feColorMatrix type="matrix" values="0 0 0 0 0 0 0 0 0 0 0 0 0 0 0 0 0 0 0.2 0"/>
<feBlend mode="normal" in2="shape" result="effect2_innerShadow_69_32"/>
</filter>
</defs>
</svg>
