<svg width="78" height="78" viewBox="0 0 78 78" fill="none" xmlns="http://www.w3.org/2000/svg">
<g filter="url(#filter0_di_69_27)">
<path d="M4 12C4 6.47715 8.47715 2 14 2H64C69.5229 2 74 6.47715 74 12V62C74 67.5229 69.5229 72 64 72H14C8.47715 72 4 67.5229 4 62V12Z" fill="#212121"/>
<path d="M44.2033 37.0056C44.2033 38.3369 43.654 39.6137 42.676 40.5553C41.6981 41.4969 40.3717 42.0262 38.9883 42.0268C37.6046 42.0268 36.2776 41.4978 35.2991 40.5561C34.3207 39.6145 33.771 38.3373 33.771 37.0056C33.771 35.6743 34.3204 34.3975 35.2983 33.4559C36.2762 32.5143 37.6027 31.985 38.986 31.9844C40.3697 31.9844 41.6968 32.5134 42.6752 33.4551C43.6536 34.3967 44.2033 35.6739 44.2033 37.0056ZM50.382 13C47.2413 13 43.1323 15.1558 38.9767 18.888C34.8233 15.176 30.712 13.0449 27.5737 13.0449C26.617 13.0449 25.7467 13.2538 24.993 13.6692C21.7847 15.45 21.066 20.9989 22.7227 27.9625C15.62 30.0734 11 33.4486 11 37.0056C11 40.5761 15.6433 43.9603 22.767 46.0554C21.1243 53.046 21.857 58.6039 25.0723 60.3825C25.819 60.8024 26.6823 61 27.6437 61C30.782 61 34.8933 58.8442 39.049 55.1075C43.2023 58.8218 47.3137 60.9528 50.452 60.9528C51.4087 60.9528 52.279 60.7507 53.0327 60.3353C56.2387 58.5568 56.9597 53.0079 55.303 46.042C62.38 43.9491 67 40.5672 67 37.0056C67 33.4351 62.3567 30.0509 55.233 27.9513C56.8757 20.9674 56.143 15.4051 52.9277 13.6243C52.1857 13.2111 51.3223 13.0022 50.3797 13H50.382ZM50.3703 15.4477V15.4612C50.8953 15.4612 51.3177 15.56 51.6723 15.7464C53.2263 16.6042 53.9007 19.8671 53.3757 24.0641C53.2497 25.0971 53.0443 26.1862 52.7923 27.2978C50.5523 26.7679 48.1117 26.3614 45.5427 26.0987C44.0027 24.0664 42.4043 22.2205 40.7943 20.6036C44.509 17.2801 47.9973 15.4567 50.3727 15.45L50.3703 15.4477ZM27.5737 15.4926C29.935 15.4926 33.4397 17.3071 37.1637 20.6126C35.563 22.2295 33.967 24.0641 32.4503 26.0964C29.8673 26.3592 27.4243 26.7656 25.1867 27.3046C24.9253 26.2042 24.7317 25.1398 24.594 24.1158C24.0573 19.921 24.72 16.6604 26.26 15.7913C26.7033 15.5892 27.1933 15.5061 27.5737 15.4949V15.4926ZM38.965 22.3418C40.0267 23.3927 41.0883 24.5694 42.1383 25.8539C41.1117 25.809 40.0617 25.7775 39 25.7775C37.9267 25.7775 36.865 25.8 35.8267 25.8539C36.8533 24.5694 37.915 23.3927 38.965 22.3395V22.3418ZM39 28.2387C40.7267 28.2387 42.4463 28.3151 44.138 28.4476C45.0853 29.7545 46.0093 31.1491 46.8983 32.6244C47.7663 34.0616 48.555 35.5213 49.2737 36.9944C48.555 38.4653 47.7663 39.9361 46.91 41.3733C46.0233 42.8554 45.1063 44.2657 44.1567 45.5726C42.458 45.7141 40.736 45.7927 39 45.7927C37.2733 45.7927 35.5537 45.7141 33.862 45.5839C32.9147 44.2769 31.9907 42.8801 31.1017 41.407C30.2337 39.9698 29.445 38.5102 28.7263 37.0371C29.4333 35.5617 30.2337 34.0886 31.09 32.6491C31.9767 31.167 32.8937 29.7613 33.8433 28.4543C35.542 28.3106 37.264 28.2342 39 28.2342V28.2387ZM30.5183 28.8091C29.9583 29.6557 29.3983 30.5225 28.8757 31.414C28.3507 32.2898 27.8607 33.1701 27.394 34.0504C26.7757 32.5773 26.2507 31.1086 25.8167 29.6782C27.31 29.3413 28.885 29.0427 30.5183 28.8114V28.8091ZM47.4583 28.8091C49.08 29.0404 50.6433 29.3256 52.139 29.6782C51.719 31.0974 51.194 32.5571 50.599 34.0189C50.1323 33.1432 49.6423 32.2606 49.1057 31.3826C48.5807 30.5023 48.0207 29.6445 47.4607 28.8091H47.4583ZM54.6053 30.3249C55.7347 30.6618 56.808 31.0368 57.8137 31.4432C61.855 33.105 64.4683 35.2787 64.4683 37.0034C64.4567 38.728 61.8433 40.9107 57.802 42.5613C56.822 42.9655 55.7487 43.3293 54.6403 43.6684C53.987 41.5171 53.133 39.2759 52.0737 36.9764C53.1237 34.6926 53.9637 32.4627 54.6053 30.3204V30.3249ZM23.3503 30.3339C23.999 32.4897 24.8553 34.7286 25.917 37.0258C24.867 39.3096 24.0223 41.5395 23.383 43.6818C22.2537 43.345 21.1803 42.9677 20.1863 42.559C16.145 40.904 13.5317 38.728 13.5317 37.0034C13.5317 35.2787 16.145 33.0915 20.1863 31.4432C21.1663 31.039 22.2397 30.6752 23.3503 30.3339ZM50.599 39.9451C51.2173 41.4205 51.7423 42.8914 52.1763 44.3196C50.683 44.6721 49.1057 44.9708 47.4723 45.1954C48.0323 44.3533 48.5923 43.4842 49.1173 42.5949C49.6423 41.7192 50.1323 40.8254 50.6013 39.9451H50.599ZM27.394 39.99C27.8607 40.8703 28.3507 41.7484 28.8873 42.6286C29.424 43.5044 29.9723 44.3622 30.5323 45.1954C28.9107 44.9663 27.3473 44.6789 25.8517 44.3286C26.2717 42.9138 26.799 41.4497 27.3917 39.9878L27.394 39.99ZM52.8133 46.6977C53.0747 47.8048 53.28 48.8714 53.406 49.8932C53.9427 54.088 53.28 57.3486 51.74 58.2199C51.397 58.422 50.9513 58.5074 50.4263 58.5074C48.065 58.5074 44.5603 56.6952 40.8363 53.3874C42.437 51.7705 44.033 49.9381 45.5497 47.9081C48.1327 47.6431 50.5757 47.2344 52.8133 46.6954V46.6977ZM25.21 46.7201C27.45 47.2456 29.8907 47.6521 32.4597 47.9148C33.9997 49.9471 35.598 51.793 37.208 53.4076C33.4863 56.7378 29.9933 58.5613 27.618 58.5613C27.1047 58.55 26.6707 58.449 26.3277 58.2648C24.7737 57.4115 24.0993 54.1464 24.6243 49.9493C24.7503 48.9164 24.9557 47.8295 25.2077 46.7201H25.21ZM35.85 48.1573C36.8767 48.2022 37.9267 48.2337 38.9883 48.2337C40.0617 48.2337 41.1233 48.2112 42.1617 48.1573C41.135 49.4418 40.0733 50.6163 39.0233 51.6717C37.9617 50.6163 36.9 49.4418 35.85 48.1573Z" fill="#61DAFB"/>
</g>
<defs>
<filter id="filter0_di_69_27" x="0" y="0" width="78" height="78" filterUnits="userSpaceOnUse" color-interpolation-filters="sRGB">
<feFlood flood-opacity="0" result="BackgroundImageFix"/>
<feColorMatrix in="SourceAlpha" type="matrix" values="0 0 0 0 0 0 0 0 0 0 0 0 0 0 0 0 0 0 127 0" result="hardAlpha"/>
<feOffset dy="2"/>
<feGaussianBlur stdDeviation="2"/>
<feColorMatrix type="matrix" values="0 0 0 0 0 0 0 0 0 0 0 0 0 0 0 0 0 0 0.1 0"/>
<feBlend mode="normal" in2="BackgroundImageFix" result="effect1_dropShadow_69_27"/>
<feBlend mode="normal" in="SourceGraphic" in2="effect1_dropShadow_69_27" result="shape"/>
<feColorMatrix in="SourceAlpha" type="matrix" values="0 0 0 0 0 0 0 0 0 0 0 0 0 0 0 0 0 0 127 0" result="hardAlpha"/>
<feOffset/>
<feGaussianBlur stdDeviation="2.5"/>
<feComposite in2="hardAlpha" operator="arithmetic" k2="-1" k3="1"/>
<feColorMatrix type="matrix" values="0 0 0 0 1 0 0 0 0 1 0 0 0 0 1 0 0 0 0.15 0"/>
<feBlend mode="normal" in2="shape" result="effect2_innerShadow_69_27"/>
</filter>
</defs>
</svg>
