<svg width="78" height="78" viewBox="0 0 78 78" fill="none" xmlns="http://www.w3.org/2000/svg">
<g filter="url(#filter0_di_69_23)">
<path d="M4 12C4 6.47715 8.47715 2 14 2H64C69.5229 2 74 6.47715 74 12V62C74 67.5229 69.5229 72 64 72H14C8.47715 72 4 67.5229 4 62V12Z" fill="#E48139"/>
<path d="M62.6696 36.4065L60.655 35.1589C60.6382 34.9629 60.6193 34.7671 60.5984 34.5715L62.3296 32.9572C62.415 32.8761 62.4785 32.7747 62.5141 32.6624C62.5497 32.5502 62.5563 32.4307 62.5332 32.3152C62.5102 32.1998 62.4582 32.092 62.3823 32.002C62.3063 31.9121 62.2088 31.8428 62.0988 31.8008L59.8856 30.9725C59.8309 30.781 59.7729 30.5905 59.7115 30.4011L61.0924 28.4831C61.1616 28.3872 61.2052 28.2753 61.2189 28.1578C61.2326 28.0404 61.2161 27.9214 61.1708 27.8122C61.1256 27.703 61.0531 27.6072 60.9604 27.5339C60.8676 27.4606 60.7577 27.4123 60.641 27.3935L58.3083 27.0146C58.2173 26.8382 58.1235 26.6634 58.0269 26.49L59.0069 24.3371C59.0563 24.2297 59.0772 24.1115 59.0676 23.9937C59.058 23.8759 59.0183 23.7626 58.9521 23.6647C58.8862 23.5666 58.7965 23.4868 58.6913 23.4329C58.5862 23.379 58.469 23.3527 58.3509 23.3566L55.9819 23.4398C55.8603 23.2858 55.7354 23.1345 55.6073 22.986L56.1519 20.6793C56.1788 20.5642 56.1759 20.4442 56.1435 20.3306C56.1112 20.217 56.0504 20.1135 55.9669 20.03C55.8834 19.9464 55.78 19.8855 55.6664 19.8531C55.5528 19.8207 55.4329 19.8177 55.3179 19.8446L53.0114 20.3896C52.8609 20.2631 52.709 20.1382 52.5558 20.0149L52.6388 17.6451C52.6445 17.5265 52.6194 17.4085 52.566 17.3025C52.5126 17.1965 52.4327 17.1061 52.3341 17.04C52.2355 16.974 52.1215 16.9346 52.0032 16.9256C51.8849 16.9167 51.7662 16.9384 51.6588 16.9888L49.5068 17.9712C49.3324 17.8759 49.1584 17.7807 48.9822 17.6897L48.6016 15.3543C48.5818 15.2381 48.5329 15.1289 48.4594 15.0368C48.3859 14.9447 48.2903 14.8727 48.1815 14.8276C48.0727 14.7825 47.9542 14.7657 47.8371 14.7789C47.7201 14.792 47.6083 14.8346 47.5121 14.9028L45.5927 16.2842C45.4034 16.2235 45.213 16.1662 45.0217 16.1122L44.1937 13.8982C44.1517 13.7882 44.0824 13.6906 43.9925 13.6146C43.9025 13.5385 43.7948 13.4866 43.6793 13.4635C43.5638 13.4404 43.4444 13.447 43.3321 13.4827C43.2199 13.5183 43.1185 13.5819 43.0375 13.6673L41.4236 15.4011C41.2282 15.3791 41.0325 15.3601 40.8364 15.3443L39.5892 13.3288C39.5272 13.2283 39.4405 13.1453 39.3374 13.0878C39.2342 13.0302 39.1181 13 39 13C38.8819 13 38.7658 13.0302 38.6626 13.0878C38.5595 13.1453 38.4728 13.2283 38.4108 13.3288L37.1636 15.3441C36.9676 15.3609 36.7719 15.3799 36.5764 15.4009L34.9605 13.6671C34.88 13.5806 34.7787 13.5161 34.6663 13.4798C34.5538 13.4435 34.434 13.4366 34.3181 13.4598C34.2022 13.4829 34.0942 13.5353 34.0043 13.6121C33.9144 13.6888 33.8456 13.7872 33.8045 13.898L32.9763 16.1118C32.7839 16.1666 32.5957 16.2252 32.4053 16.2838L30.4879 14.9028C30.3917 14.8346 30.2799 14.792 30.1628 14.7789C30.0457 14.7657 29.9273 14.7825 29.8184 14.8277C29.7096 14.8728 29.614 14.9448 29.5405 15.0369C29.4671 15.1291 29.4182 15.2383 29.3984 15.3545L29.0178 17.6897C28.8415 17.7807 28.6667 17.8746 28.4934 17.9712L26.341 16.9888C26.2335 16.9396 26.1151 16.9188 25.9973 16.9283C25.8794 16.9378 25.766 16.9773 25.6677 17.0431C25.5695 17.1089 25.4897 17.1988 25.436 17.3041C25.3823 17.4095 25.3565 17.5269 25.361 17.6451L25.4442 20.0149C25.29 20.1369 25.1381 20.2619 24.9886 20.3896L22.6823 19.8444C22.5673 19.8175 22.4474 19.8204 22.3338 19.8528C22.2202 19.8852 22.1168 19.9461 22.0333 20.0296C21.9498 20.1132 21.8889 20.2166 21.8565 20.3302C21.8241 20.4438 21.8212 20.5638 21.8481 20.6789L22.3907 22.9858C22.2651 23.1359 22.1397 23.2877 22.0181 23.4396L19.6491 23.3566C19.5309 23.3521 19.4136 23.3779 19.3082 23.4316C19.2029 23.4853 19.1131 23.5651 19.0473 23.6634C18.9815 23.7617 18.942 23.8752 18.9325 23.9931C18.923 24.111 18.9439 24.2293 18.9931 24.3369L19.9751 26.4898C19.8784 26.6631 19.7846 26.838 19.6937 27.0144L17.3612 27.3933C17.2451 27.4131 17.1359 27.462 17.0439 27.5355C16.9518 27.6089 16.8798 27.7045 16.8347 27.8134C16.7896 27.9222 16.7728 28.0407 16.7859 28.1578C16.799 28.2749 16.8416 28.3867 16.9096 28.4829L18.2905 30.4009C18.2303 30.5906 18.1723 30.7811 18.1164 30.9721L15.9034 31.8004C15.7934 31.8424 15.6958 31.9116 15.6198 32.0016C15.5438 32.0916 15.4918 32.1993 15.4687 32.3149C15.4456 32.4304 15.4522 32.5499 15.4878 32.6622C15.5235 32.7745 15.587 32.8759 15.6724 32.957L17.4036 34.5715C17.3817 34.7669 17.3628 34.9627 17.347 35.1587L15.3324 36.4063C15.231 36.4676 15.1471 36.5541 15.0888 36.6573C15.0306 36.7606 15 36.8771 15 36.9957C15 37.1143 15.0306 37.2308 15.0888 37.3341C15.1471 37.4373 15.231 37.5238 15.3324 37.5851L17.347 38.8327C17.363 39.0292 17.3834 39.2256 17.4036 39.4201L15.6724 41.0364C15.5859 41.117 15.5215 41.2183 15.4852 41.3308C15.4489 41.4433 15.442 41.5632 15.4652 41.6791C15.4883 41.7951 15.5408 41.9031 15.6175 41.993C15.6942 42.0829 15.7926 42.1517 15.9034 42.1928L18.1164 43.0213C18.1711 43.2138 18.2299 43.4042 18.2905 43.5925L16.9096 45.5105C16.8397 45.6063 16.7957 45.7186 16.7818 45.8363C16.7678 45.9541 16.7844 46.0735 16.83 46.183C16.8756 46.2925 16.9486 46.3884 17.042 46.4615C17.1354 46.5346 17.246 46.5824 17.3632 46.6003L19.6957 46.979C19.7869 47.1551 19.8801 47.3293 19.9773 47.5036L18.9953 49.6567C18.9461 49.7643 18.9252 49.8826 18.9347 50.0005C18.9442 50.1184 18.9837 50.2319 19.0495 50.3302C19.1153 50.4285 19.2051 50.5083 19.3104 50.562C19.4158 50.6157 19.5331 50.6415 19.6513 50.637L22.0181 50.554C22.1417 50.7079 22.2651 50.8597 22.3927 51.0096L21.8501 53.3185C21.8231 53.4335 21.8259 53.5535 21.8582 53.6671C21.8906 53.7807 21.9515 53.8841 22.0351 53.9675C22.1187 54.0509 22.2222 54.1116 22.3359 54.1437C22.4495 54.1758 22.5694 54.1783 22.6843 54.151L24.9904 53.6082C25.1404 53.7359 25.2924 53.8593 25.4462 53.9809L25.3632 56.3507C25.3579 56.4691 25.3832 56.5869 25.4368 56.6926C25.4903 56.7984 25.5702 56.8885 25.6688 56.9543C25.7673 57.0201 25.8812 57.0593 25.9993 57.0682C26.1175 57.077 26.2359 57.0553 26.3432 57.0049L28.4954 56.0246C28.6694 56.1218 28.8436 56.2149 29.0198 56.3061L29.4004 58.6393C29.4199 58.7556 29.4686 58.8651 29.5419 58.9575C29.6153 59.0499 29.7108 59.1222 29.8197 59.1675C29.9286 59.2128 30.0472 59.2298 30.1644 59.2168C30.2816 59.2038 30.3936 59.1612 30.4899 59.093L32.4073 57.7118C32.5967 57.7728 32.787 57.8309 32.9783 57.8858L33.8063 60.0998C33.847 60.211 33.9155 60.3099 34.0054 60.387C34.0953 60.4641 34.2035 60.5168 34.3196 60.54C34.4357 60.5631 34.5559 60.5561 34.6684 60.5194C34.781 60.4828 34.8823 60.4178 34.9625 60.3306L36.5784 58.5989C36.7728 58.6211 36.9692 58.6395 37.1656 58.6577L38.4128 60.673C38.4752 60.773 38.562 60.8555 38.6651 60.9128C38.7682 60.97 38.8841 61 39.002 61C39.1199 61 39.2358 60.97 39.3389 60.9128C39.442 60.8555 39.5288 60.773 39.5912 60.673L40.8384 58.6577C41.0348 58.6395 41.2312 58.6211 41.4256 58.5989L43.0395 60.3306C43.1205 60.4161 43.2219 60.4796 43.3341 60.5152C43.4463 60.5508 43.5657 60.5574 43.6812 60.5343C43.7966 60.5113 43.9044 60.4593 43.9943 60.3833C44.0842 60.3073 44.1535 60.2098 44.1955 60.0998L45.0237 57.8858C45.215 57.8312 45.4054 57.7731 45.5947 57.7118L47.5121 59.093C47.6079 59.1629 47.7201 59.207 47.8379 59.2209C47.9556 59.2349 48.075 59.2183 48.1844 59.1727C48.2939 59.1271 48.3898 59.0541 48.4628 58.9606C48.5359 58.8672 48.5837 58.7565 48.6016 58.6393L48.9822 56.3061C49.1582 56.2149 49.3324 56.1199 49.5066 56.0246L51.659 57.0049C51.7664 57.0535 51.8844 57.0739 52.0019 57.0642C52.1193 57.0546 52.2324 57.0152 52.3304 56.9497C52.4284 56.8843 52.5082 56.795 52.5622 56.6902C52.6162 56.5854 52.6426 56.4686 52.639 56.3507L52.556 53.9809C52.7099 53.86 52.861 53.7357 53.0094 53.6082L55.3157 54.151C55.4305 54.1777 55.5502 54.1748 55.6635 54.1425C55.7768 54.1102 55.8801 54.0495 55.9635 53.9663C56.047 53.883 56.1079 53.7799 56.1405 53.6666C56.1731 53.5533 56.1763 53.4336 56.1499 53.3187L55.6073 51.0096C55.7329 50.8597 55.8583 50.7079 55.9799 50.5538L58.3489 50.6368C58.4675 50.6425 58.5854 50.6174 58.6914 50.564C58.7974 50.5106 58.8878 50.4307 58.9538 50.332C59.0198 50.2334 59.0592 50.1194 59.0681 50.001C59.0771 49.8826 59.0553 49.764 59.0049 49.6565L58.0249 47.5038C58.1199 47.3293 58.2151 47.1553 58.3063 46.979L60.6388 46.6003C60.7549 46.5805 60.8641 46.5316 60.9562 46.4581C61.0484 46.3847 61.1203 46.289 61.1654 46.1802C61.2106 46.0713 61.2273 45.9528 61.2142 45.8357C61.2011 45.7186 61.1585 45.6067 61.0904 45.5105L59.7095 43.5925L59.8836 43.0213L62.0968 42.193C62.2076 42.1519 62.3061 42.0831 62.3828 41.9932C62.4595 41.9032 62.5119 41.7951 62.535 41.6792C62.5582 41.5633 62.5513 41.4433 62.5149 41.3308C62.4786 41.2183 62.4141 41.117 62.3276 41.0364L60.5964 39.4201C60.6166 39.2256 60.6368 39.0292 60.653 38.8327L62.6676 37.5851C62.769 37.5238 62.8529 37.4373 62.9112 37.3341C62.9694 37.2308 63 37.1143 63 36.9957C63 36.8771 62.9694 36.7606 62.9112 36.6573C62.8529 36.5541 62.769 36.4676 62.6676 36.4063L62.6696 36.4065ZM49.1868 53.1222C48.8183 53.0413 48.4969 52.8177 48.2927 52.5004C48.0886 52.183 48.0182 51.7978 48.0971 51.4288C48.176 51.0597 48.3978 50.737 48.7138 50.531C49.0299 50.3249 49.4146 50.2525 49.784 50.3293C49.9699 50.3661 50.1466 50.4395 50.3039 50.5452C50.4612 50.651 50.5958 50.787 50.7 50.9453C50.8042 51.1037 50.8758 51.2812 50.9107 51.4675C50.9457 51.6538 50.9431 51.8452 50.9034 52.0305C50.8636 52.2159 50.7873 52.3914 50.6791 52.547C50.5708 52.7026 50.4326 52.835 50.2726 52.9366C50.1127 53.0382 49.9341 53.107 49.7472 53.1388C49.5604 53.1707 49.3692 53.1651 49.1846 53.1222H49.1868ZM48.5024 48.4923C48.3354 48.4564 48.1629 48.4537 47.9949 48.4846C47.8269 48.5154 47.6666 48.5791 47.5232 48.6721C47.3799 48.765 47.2563 48.8853 47.1595 49.0261C47.0628 49.1669 46.9947 49.3255 46.9593 49.4926L46.2447 52.8308C44.0377 53.8331 41.5876 54.3903 39.006 54.3903C36.4532 54.3939 33.9306 53.8381 31.6157 52.7617L30.9009 49.4238C30.8655 49.2567 30.7975 49.0983 30.7007 48.9576C30.6039 48.8168 30.4803 48.6967 30.3369 48.6039C30.1935 48.5111 30.0332 48.4476 29.8653 48.417C29.6973 48.3864 29.5249 48.3893 29.358 48.4255L26.412 49.0573C25.8646 48.4934 25.3559 47.8932 24.8894 47.2607H39.2248C39.3868 47.2607 39.496 47.2325 39.496 47.0846V42.011C39.496 41.8629 39.3888 41.8347 39.2248 41.8347H35.0315V38.6182H39.567C39.98 38.6182 41.78 38.7357 42.3551 41.0366C42.5353 41.7435 42.9301 44.0464 43.2015 44.7837C43.4707 45.61 44.5681 47.2607 45.7385 47.2607H52.8818C52.9688 47.2595 53.0556 47.2507 53.141 47.2345C52.6457 47.9076 52.1031 48.5445 51.5172 49.1403L48.5024 48.4923ZM28.6736 53.0534C28.489 53.0963 28.2977 53.1019 28.1109 53.07C27.9241 53.0382 27.7455 52.9694 27.5856 52.8678C27.4256 52.7662 27.2874 52.6337 27.1791 52.4782C27.0709 52.3226 26.9946 52.1471 26.9548 51.9617C26.915 51.7764 26.9125 51.585 26.9475 51.3987C26.9824 51.2123 27.054 51.0349 27.1582 50.8765C27.2624 50.7182 27.397 50.5822 27.5543 50.4764C27.7116 50.3706 27.8883 50.2972 28.0742 50.2605C28.4418 50.1878 28.8232 50.2626 29.1362 50.4687C29.4491 50.6747 29.6686 50.9956 29.7472 51.362C29.8259 51.7285 29.7574 52.1112 29.5566 52.4276C29.3557 52.744 29.0386 52.9688 28.6736 53.0534ZM23.2351 30.9925C23.3176 31.1647 23.3647 31.3518 23.3737 31.5425C23.3826 31.7333 23.3532 31.9239 23.2872 32.1031C23.2212 32.2823 23.1199 32.4465 22.9894 32.5858C22.8588 32.7252 22.7017 32.8369 22.5272 32.9144C22.3527 32.992 22.1644 33.0337 21.9736 33.0371C21.7827 33.0405 21.593 33.0056 21.4159 32.9345C21.2387 32.8633 21.0776 32.7573 20.9421 32.6227C20.8066 32.4882 20.6995 32.3278 20.6271 32.1511C20.4866 31.8074 20.4856 31.4224 20.6241 31.078C20.7626 30.7335 21.0299 30.4565 21.3691 30.3058C21.7084 30.1551 22.093 30.1426 22.4414 30.2708C22.7897 30.399 23.0744 30.658 23.2351 30.9927V30.9925ZM21.5647 34.9564L24.6342 33.5912C24.7903 33.5218 24.9312 33.4224 25.0489 33.2985C25.1666 33.1746 25.2588 33.0287 25.32 32.8692C25.3813 32.7097 25.4106 32.5397 25.4062 32.3688C25.4017 32.198 25.3637 32.0297 25.2942 31.8736L24.6626 30.4437H27.149V41.6524H22.1335C21.515 39.4771 21.3226 37.2026 21.5667 34.9542L21.5647 34.9564ZM35.0335 33.8687V30.5652H40.9538C41.2598 30.5652 43.1123 30.9197 43.1123 32.3051C43.1123 33.4555 41.6908 33.8687 40.5226 33.8687H35.0335ZM56.5487 36.842C56.5487 37.2796 56.5327 37.7149 56.5001 38.1445H54.7001C54.5201 38.1445 54.4471 38.2617 54.4471 38.44V39.2662C54.4471 41.2129 53.3496 41.6362 52.3878 41.7435C51.4726 41.8469 50.4582 41.3607 50.3328 40.7998C49.792 37.7616 48.8932 37.1113 47.4717 35.9914C49.2352 34.8712 51.0698 33.2184 51.0698 31.0067C51.0698 28.6187 49.4318 27.1138 48.316 26.3746C46.7509 25.3416 45.0177 25.1352 44.5499 25.1352H25.9362C28.5087 22.2578 31.9584 20.3098 35.7503 19.5935L37.9452 21.8963C38.0628 22.02 38.2036 22.1193 38.3597 22.1885C38.5157 22.2576 38.6839 22.2953 38.8545 22.2992C39.0252 22.3032 39.1949 22.2734 39.354 22.2116C39.5131 22.1497 39.6584 22.0571 39.7816 21.9389L42.2357 19.5895C44.7379 20.0589 47.108 21.0673 49.1817 22.5446C51.2554 24.0219 52.983 25.9328 54.2447 28.1448L52.564 31.9424C52.4248 32.2578 52.416 32.6156 52.5397 32.9375C52.6634 33.2593 52.9094 33.5191 53.224 33.66L56.4597 35.0981C56.5163 35.6733 56.5447 36.2524 56.5447 36.842H56.5487ZM37.9472 17.6371C38.2208 17.376 38.5869 17.2344 38.9649 17.2433C39.152 17.2477 39.3365 17.289 39.5077 17.3647C39.679 17.4404 39.8336 17.5492 39.9628 17.6847C40.092 17.8202 40.1933 17.9798 40.2609 18.1545C40.3284 18.3292 40.3609 18.5154 40.3565 18.7027C40.3521 18.8899 40.3108 19.0744 40.2351 19.2457C40.1594 19.417 40.0507 19.5717 39.9152 19.7009C39.6379 19.9404 39.2792 20.064 38.9133 20.0463C38.5475 20.0286 38.2024 19.8708 37.9496 19.6056C37.6967 19.3405 37.5555 18.9883 37.555 18.6218C37.5546 18.2554 37.695 17.9028 37.9472 17.6371ZM54.6253 31.0615C54.7007 30.8902 54.8093 30.7356 54.9447 30.6064C55.0801 30.4771 55.2396 30.3759 55.4142 30.3086C55.5888 30.2412 55.775 30.2089 55.962 30.2137C56.1491 30.2185 56.3334 30.2601 56.5043 30.3363C56.7627 30.4503 56.9815 30.6385 57.1329 30.877C57.2843 31.1155 57.3617 31.3936 57.3551 31.676C57.3485 31.9585 57.2582 32.2326 57.0958 32.4637C56.9334 32.6949 56.7061 32.8726 56.4426 32.9745C56.1792 33.0763 55.8914 33.0977 55.6158 33.0359C55.3402 32.9741 55.0891 32.8319 54.8944 32.6274C54.6996 32.4228 54.5698 32.165 54.5216 31.8866C54.4733 31.6082 54.5087 31.3218 54.6233 31.0635L54.6253 31.0615Z" fill="white"/>
</g>
<defs>
<filter id="filter0_di_69_23" x="0" y="0" width="78" height="78" filterUnits="userSpaceOnUse" color-interpolation-filters="sRGB">
<feFlood flood-opacity="0" result="BackgroundImageFix"/>
<feColorMatrix in="SourceAlpha" type="matrix" values="0 0 0 0 0 0 0 0 0 0 0 0 0 0 0 0 0 0 127 0" result="hardAlpha"/>
<feOffset dy="2"/>
<feGaussianBlur stdDeviation="2"/>
<feColorMatrix type="matrix" values="0 0 0 0 0 0 0 0 0 0 0 0 0 0 0 0 0 0 0.1 0"/>
<feBlend mode="normal" in2="BackgroundImageFix" result="effect1_dropShadow_69_23"/>
<feBlend mode="normal" in="SourceGraphic" in2="effect1_dropShadow_69_23" result="shape"/>
<feColorMatrix in="SourceAlpha" type="matrix" values="0 0 0 0 0 0 0 0 0 0 0 0 0 0 0 0 0 0 127 0" result="hardAlpha"/>
<feOffset/>
<feGaussianBlur stdDeviation="2.5"/>
<feComposite in2="hardAlpha" operator="arithmetic" k2="-1" k3="1"/>
<feColorMatrix type="matrix" values="0 0 0 0 0.908333 0 0 0 0 0.908333 0 0 0 0 0.908333 0 0 0 0.13 0"/>
<feBlend mode="normal" in2="shape" result="effect2_innerShadow_69_23"/>
</filter>
</defs>
</svg>
