<svg width="78" height="78" viewBox="0 0 78 78" fill="none" xmlns="http://www.w3.org/2000/svg">
<g filter="url(#filter0_di_69_34)">
<path d="M4 12C4 6.47715 8.47715 2 14 2H64C69.5229 2 74 6.47715 74 12V62C74 67.5229 69.5229 72 64 72H14C8.47715 72 4 67.5229 4 62V12Z" fill="white"/>
<path d="M7.28125 2C5.46417 2 4 3.46417 4 5.28125V68.7188C4 70.5358 5.46417 72 7.28125 72H70.7188C72.5358 72 74 70.5358 74 68.7188V5.28125C74 3.46417 72.5358 2 70.7188 2H7.28125ZM57.9233 30.4375C59.7083 30.4375 61.2892 30.5454 62.6687 30.7612C63.97 30.9562 65.2468 31.2886 66.4779 31.7529V38.9221C65.887 38.5134 65.2591 38.1609 64.6025 37.8692C63.9253 37.5645 63.2263 37.311 62.5113 37.1108C61.1567 36.7334 59.7582 36.5372 58.3521 36.5275C57.4771 36.5275 56.6808 36.6092 55.9633 36.7783C55.3238 36.9151 54.7104 37.1534 54.1463 37.4842C53.6504 37.7875 53.2712 38.1521 53 38.575C52.7272 39.0013 52.5852 39.4981 52.5917 40.0042C52.5917 40.5758 52.7463 41.0921 53.0467 41.5471C53.35 42.0021 53.7817 42.4338 54.3388 42.8421C54.8958 43.2504 55.5725 43.6471 56.3687 44.0379C57.165 44.4317 58.0662 44.8371 59.0696 45.2513C60.4404 45.8258 61.6712 46.4383 62.7621 47.0829C63.8529 47.7304 64.7892 48.4625 65.5708 49.2792C66.3525 50.0929 66.9475 51.0233 67.3617 52.0704C67.7758 53.1175 67.9858 54.3337 67.9858 55.725C67.9858 57.6412 67.6213 59.2542 66.8979 60.555C66.1912 61.838 65.177 62.9253 63.9462 63.7196C62.6197 64.5607 61.1494 65.15 59.6092 65.4579C57.9583 65.8079 56.2171 65.9829 54.3883 65.9829C52.5885 65.9908 50.7918 65.8307 49.0217 65.5046C47.4902 65.2397 46.0049 64.7554 44.6117 64.0667V56.3958C47.2477 58.6391 50.5916 59.8787 54.0529 59.8958C55.0242 59.8958 55.8729 59.8083 56.5963 59.6333C57.3225 59.4583 57.9262 59.2133 58.4133 58.9042C58.8975 58.5892 59.2592 58.2217 59.5012 57.7958C59.7688 57.3 59.8905 56.7386 59.8523 56.1765C59.8141 55.6144 59.6176 55.0746 59.2854 54.6196C58.8521 54.0461 58.322 53.5526 57.7192 53.1613C56.9715 52.6656 56.1842 52.2325 55.3654 51.8662C54.3949 51.423 53.4157 50.999 52.4283 50.5946C49.7508 49.4775 47.7558 48.1096 46.4404 46.4967C45.1279 44.8837 44.4688 42.9325 44.4688 40.6488C44.4688 38.8579 44.8275 37.3208 45.545 36.0346C46.2625 34.7483 47.2367 33.6896 48.4733 32.8583C49.7813 31.9954 51.2335 31.3741 52.7608 31.0238C54.4524 30.6249 56.1854 30.4281 57.9233 30.4375ZM13.8438 30.9858H41.7358V37.3033H31.7258V65.4375H23.8012V37.3033H13.8438V30.9858Z" fill="#327CC8"/>
</g>
<defs>
<filter id="filter0_di_69_34" x="0" y="0" width="78" height="78" filterUnits="userSpaceOnUse" color-interpolation-filters="sRGB">
<feFlood flood-opacity="0" result="BackgroundImageFix"/>
<feColorMatrix in="SourceAlpha" type="matrix" values="0 0 0 0 0 0 0 0 0 0 0 0 0 0 0 0 0 0 127 0" result="hardAlpha"/>
<feOffset dy="2"/>
<feGaussianBlur stdDeviation="2"/>
<feColorMatrix type="matrix" values="0 0 0 0 0 0 0 0 0 0 0 0 0 0 0 0 0 0 0.1 0"/>
<feBlend mode="normal" in2="BackgroundImageFix" result="effect1_dropShadow_69_34"/>
<feBlend mode="normal" in="SourceGraphic" in2="effect1_dropShadow_69_34" result="shape"/>
<feColorMatrix in="SourceAlpha" type="matrix" values="0 0 0 0 0 0 0 0 0 0 0 0 0 0 0 0 0 0 127 0" result="hardAlpha"/>
<feOffset/>
<feGaussianBlur stdDeviation="2.5"/>
<feComposite in2="hardAlpha" operator="arithmetic" k2="-1" k3="1"/>
<feColorMatrix type="matrix" values="0 0 0 0 0.908333 0 0 0 0 0.908333 0 0 0 0 0.908333 0 0 0 0.13 0"/>
<feBlend mode="normal" in2="shape" result="effect2_innerShadow_69_34"/>
</filter>
</defs>
</svg>
